<svg  viewBox="0 0 10 10" xmlns="http://www.w3.org/2000/svg">
<path d="M5 10C4.3252 10 3.66992 9.86816 3.05371 9.60742C2.45801 9.35547 1.92383 8.99414 1.46484 8.53516C1.00586 8.07617 0.644531 7.54199 0.392578 6.94629C0.131836 6.33008 0 5.6748 0 5C0 4.80566 0.157227 4.64844 0.351562 4.64844C0.545898 4.64844 0.703125 4.80566 0.703125 5C0.703125 5.58008 0.816406 6.14258 1.04102 6.67285C1.25781 7.18457 1.56738 7.64453 1.96191 8.03906C2.35645 8.43359 2.81641 8.74414 3.32812 8.95996C3.85742 9.18359 4.41992 9.29688 5 9.29688C5.58008 9.29688 6.14258 9.18359 6.67285 8.95898C7.18457 8.74219 7.64453 8.43262 8.03906 8.03809C8.43359 7.64355 8.74414 7.18359 8.95996 6.67188C9.18359 6.14258 9.29688 5.58008 9.29688 5C9.29688 4.41992 9.18359 3.85742 8.95898 3.32715C8.74292 2.81666 8.43022 2.35275 8.03809 1.96094C7.64671 1.56828 7.18269 1.2555 6.67188 1.04004C6.14258 0.816406 5.58008 0.703125 5 0.703125C4.80566 0.703125 4.64844 0.545898 4.64844 0.351562C4.64844 0.157227 4.80566 0 5 0C5.6748 0 6.33008 0.131836 6.94629 0.392578C7.54199 0.644531 8.07617 1.00586 8.53516 1.46484C8.99414 1.92383 9.35449 2.45898 9.60645 3.05371C9.86719 3.66992 9.99902 4.3252 9.99902 5C9.99902 5.6748 9.86719 6.33008 9.60645 6.94629C9.35547 7.54199 8.99414 8.07617 8.53516 8.53516C8.07617 8.99414 7.54102 9.35449 6.94629 9.60645C6.33008 9.86816 5.6748 10 5 10V10Z" />
</svg>
