<svg  viewBox="0 0 35 34"  xmlns="http://www.w3.org/2000/svg">
<path d="M17.1001 34C7.7001 34 0.100098 26.4 0.100098 17C0.100098 7.6 7.7001 0 17.1001 0C26.5001 0 34.1001 7.6 34.1001 17C34.1001 26.4 26.4001 34 17.1001 34ZM17.1001 2C8.8001 2 2.1001 8.7 2.1001 17C2.1001 25.3 8.8001 32 17.1001 32C25.4001 32 32.1001 25.3 32.1001 17C32.1001 8.7 25.3001 2 17.1001 2Z" />
<path d="M7.3 29.3L5.5 28.5C6 27.3 7.6 26.6 9.3 25.8C11 25 13.1 24.1 13.1 23V21.5C12.5 21 11.5 19.9 11.3 18.3C10.8 17.8 10 16.9 10 15.7C10 15 10.3 14.4 10.5 14C10.3 13.2 10.1 11.7 10.1 10.5C10.1 6.6 12.8 4 17.1 4C18.3 4 19.8 4.3 20.6 5.2C22.5 5.6 24.1 7.8 24.1 10.5C24.1 12.2 23.8 13.6 23.6 14.3C23.8 14.6 24 15.1 24 15.7C24 17 23.3 17.9 22.7 18.3C22.5 19.9 21.6 20.9 21 21.4V23C21 23.9 22.8 24.6 24.4 25.2C26.3 25.9 28.3 26.7 29 28.3L27.1 29C26.8 28.2 25.2 27.6 23.7 27.1C21.5 26.3 19 25.4 19 23.1V20.5L19.5 20.2C19.5 20.2 20.7 19.4 20.7 17.8V17.1L21.3 16.8C21.4 16.8 21.9 16.5 21.9 15.7C21.9 15.5 21.7 15.2 21.6 15.1L21.2 14.7L21.4 14.2C21.4 14.2 21.9 12.6 21.9 10.6C21.9 8.7 20.8 7.3 19.9 7.3H19.3L19 6.8C19 6.4 18.3 6 17.1 6C14 6 12.1 7.7 12.1 10.5C12.1 11.8 12.6 14 12.6 14L12.7 14.5L12.3 15C12.2 15 12 15.3 12 15.7C12 16.2 12.6 16.8 12.9 17L13.3 17.3V17.8C13.3 19.3 14.6 20.1 14.6 20.2L15.1 20.5V23.1C15.1 25.5 12.5 26.7 10.1 27.7C9 28.1 7.5 28.8 7.3 29.3V29.3Z"/>
</svg>
